<?xml version="1.0" encoding="UTF-8"?>
<svg version="1.1" viewBox="0 0 186 44.9" xmlns="http://www.w3.org/2000/svg" xmlns:xlink="http://www.w3.org/1999/xlink">
 <style>
#path-animation-1, #path-animation-2, #path-animation-3 {
   animation: dash 10s infinite linear;
}
@keyframes dash {
   to {
      /* stroke-dashoffset = stroke-dasharray * 1.5 * 10s */
      stroke-dashoffset: -46.53;
   }
}

#path-animation-4, #path-animation-5, #path-animation-6, #path-animation-7, #path-animation-8, #path-animation-9, #path-animation-10, #path-animation-11 {
   animation: blink 1s infinite linear;
   opacity: 0;
}
#path-animation-5 {
   animation-delay: 0.1s;
}
#path-animation-6 {
   animation-delay: 0.2s;
}
#path-animation-7 {
   animation-delay: 0.3s;
}
#path-animation-8 {
   animation-delay: 0.4s;
}
#path-animation-9 {
   animation-delay: 0.5s;
}
#path-animation-10 {
   animation-delay: 0.6s;
}
#path-animation-11 {
   animation-delay: 0.7s;
}
@keyframes blink {
   0% {
      opacity: 0;
   }
   80% {
      opacity: 0;
   }
   81% {
      opacity: 1;
   }
   100% {
      opacity: 1;
   }
}
 </style>
 <defs>
  <clipPath id="clipPath1410-2-0">
   <ellipse cx="26" cy="24.8" rx="16.7" ry="16.7" fill="#005193" stop-color="#000000" style="font-variation-settings:normal;paint-order:stroke fill markers"/>
  </clipPath>
  <clipPath id="clipPath1410-2-0-8">
   <circle cx="26" cy="24.8" r="16.7" fill="#005193" stop-color="#000000" style="font-variation-settings:normal;paint-order:stroke fill markers"/>
  </clipPath>
  <clipPath id="clipPath1410-2-0-5">
   <circle cx="26" cy="24.8" r="16.7" fill="#005193" stop-color="#000000" style="font-variation-settings:normal;paint-order:stroke fill markers"/>
  </clipPath>
 </defs>
 <g transform="translate(-60 -77.9)">
  <path id="path-animation-2" d="m77.2 113h52.9" fill="none" stroke="#228ae0" stroke-dasharray="3.102, 1.551" stroke-width="1.55"/>
  <text x="86.491768" y="121.2133" fill="#228ae0" font-family="sans-serif" font-size="7.06px" stroke-width=".265" style="line-height:1.25" xml:space="preserve"><tspan x="86.491768" y="121.2133" fill="#228ae0" font-family="Rubik" font-size="7.06px" stroke-width=".265">PLC Data</tspan></text>
  <path d="m143 116c-0.707 0-1.36 0.498-1.36 1.21v0.92c-0.249 0.0922-0.427 0.33-0.427 0.612v2.5c0 0.363 0.292 0.654 0.655 0.654h2.5c0.363 0 0.654-0.292 0.654-0.654v-2.5c0-0.282-0.177-0.519-0.426-0.612v-0.92c0-0.707-0.653-1.21-1.36-1.21zm0 0.868h0.232c0.319 0 0.492 0.19 0.492 0.337v0.877h-1.21v-0.877c0-0.147 0.172-0.337 0.491-0.337zm0.0766 2.34a0.542 0.542 0 0 1 8e-3 0 0.542 0.542 0 0 1 0.542 0.542 0.542 0.542 0 0 1-0.281 0.475l0.239 0.738h-0.999l0.239-0.738a0.542 0.542 0 0 1-0.281-0.475 0.542 0.542 0 0 1 0.534-0.542z" color="#000000" color-rendering="auto" dominant-baseline="auto" fill="#228ae0" image-rendering="auto" shape-rendering="auto" solid-color="#000000" stop-color="#000000" style="font-feature-settings:normal;font-variant-alternates:normal;font-variant-caps:normal;font-variant-east-asian:normal;font-variant-ligatures:normal;font-variant-numeric:normal;font-variant-position:normal;font-variation-settings:normal;inline-size:0;isolation:auto;mix-blend-mode:normal;shape-margin:0;shape-padding:0;text-decoration-color:#000000;text-decoration-line:none;text-decoration-style:solid;text-indent:0;text-orientation:mixed;text-transform:none;white-space:normal"/>
  <path id="path-animation-1" d="m77.2 104h52.9" fill="none" stroke="#228ae0" stroke-dasharray="3.102, 1.551" stroke-width="1.55"/>
  <text x="146.28737" y="121.2133" fill="#228ae0" font-family="sans-serif" font-size="7.06px" stroke-width=".265" style="line-height:1.25" xml:space="preserve"><tspan x="146.28737" y="121.2133" fill="#228ae0" font-family="Rubik" font-size="7.06px" stroke-width=".265">MQTT Data</tspan></text>
  <g fill="none" stroke="#228ae0" stroke-width="1.55">
   <path id="path-animation-3" d="m137 113h52.9" stroke-dasharray="3.102, 1.551"/>
   <g stroke-linecap="round" stroke-linejoin="round">
    <path id="path-animation-4" d="m206 94.8a14.5 14.5 0 0 1 0.41 10.9" style="paint-order:stroke fill markers"/>
    <path id="path-animation-5" d="m210 92.7a19.5 19.5 0 0 1 0.552 14.6" style="paint-order:stroke fill markers"/>
    <path id="path-animation-6" d="m215 90.7a24.5 24.5 0 0 1 0.693 18.4" style="paint-order:stroke fill markers"/>
    <path id="path-animation-7" d="m219 88.6a29.5 29.5 0 0 1 0.834 22.1" style="paint-order:stroke fill markers"/>
    <path id="path-animation-8" d="m224 86.6a34.5 34.5 0 0 1 0.976 25.9" style="paint-order:stroke fill markers"/>
    <path id="path-animation-9" d="m228 84.5a39.5 39.5 0 0 1 1.12 29.7" style="paint-order:stroke fill markers"/>
    <path id="path-animation-10" d="m233 82.5a44.5 44.5 0 0 1 1.26 33.4" style="paint-order:stroke fill markers"/>
    <path id="path-animation-11" d="m237 80.4a49.5 49.5 0 0 1 1.4 37.2" style="paint-order:stroke fill markers"/>
   </g>
  </g>
 </g>
 <g transform="translate(0 -45.1)">
  <g transform="matrix(1.54 0 0 1.54 56.1 -35.5)">
   <g opacity=".999" stroke-dasharray="13.8331, 13.8331">
    <path d="m49.5 68c-0.446 1.62e-4 -0.808 0.199-0.815 0.446l-1.9 9c-2.14e-4 0.834 1.22 1.51 2.72 1.51 1.5 5.5e-5 2.72-0.676 2.72-1.51l-1.9-9c1.16e-4 -0.25-0.365-0.453-0.815-0.453z" fill="#99a6b9" style="paint-order:stroke fill markers"/>
    <path d="m49.5 68 1.93 10.5c0.476-0.272 0.771-0.643 0.771-1.05l-1.9-9c1.14e-4 -0.246-0.354-0.446-0.795-0.452z" fill="#818b95" opacity=".999" style="paint-order:stroke fill markers"/>
   </g>
   <circle cx="49.4" cy="67" r="1.59" fill="#818b95" style="paint-order:stroke fill markers"/>
   <path d="m49.4 65.4a1.59 1.59 0 0 0-1.59 1.59 1.59 1.59 0 0 0 0.345 0.989 1.59 1.59 0 0 0 0.722 0.174 1.59 1.59 0 0 0 1.59-1.59 1.59 1.59 0 0 0-0.345-0.989 1.59 1.59 0 0 0-0.722-0.174z" fill="#d4e1e9" style="paint-order:stroke fill markers"/>
  </g>
 </g>
 <g transform="translate(-60 -77.9)">
  <g transform="translate(-31.7 31.8)" fill="#ecefec" opacity=".999">
   <g fill="#4b525c" opacity=".999">
    <g transform="translate(34.5 -27.5)" fill-rule="evenodd">
     <path d="m74.5 73.5 18.6 1.76v23.8l-18.6-1.76z" fill="#e9e9ff" opacity=".999"/>
     <path d="m69.6 78.8v23.8l4.95-5.27v-23.8z" fill="#353564" opacity=".999"/>
     <path d="m69.6 103 18.6 1.76 4.95-5.27-18.6-1.76z" fill="#afafde" opacity=".999"/>
     <path d="m69.6 78.8 18.6 1.76 4.95-5.27-18.6-1.76z" fill="#d4e1e9" opacity=".999"/>
     <path d="m88.1 80.6v23.8l4.95-5.27v-23.8z" fill="#818b95" opacity=".999"/>
     <path d="m69.6 78.8 18.6 1.76v23.8l-18.6-1.76z" fill="#99a6b9" opacity=".999"/>
     <path d="m70.6 79.9v11l5.34 0.504v-11z" fill="#4b525c" opacity=".999"/>
     <path d="m84.6 83.1 1.43 0.135v6.53l-1.43-0.135z" fill="#a9ff61" opacity=".999" style="paint-order:normal"/>
     <path d="m83.5 93.7 1.43 0.135v6.53l-1.43-0.135z" fill="#a9ff61" opacity=".999" style="paint-order:normal"/>
     <path d="m84 82 1.43 0.135v19.8l-1.43-0.135z" fill="#beccdc" opacity=".999"/>
     <path d="m80.7 88.1 1.43 0.135v6.53l-1.43-0.135z" fill="#a9ff61" opacity=".999" style="paint-order:normal"/>
     <path d="m81.7 84.9 1.43 0.135v6.53l-1.43-0.135z" fill="#a9ff61" opacity=".999" style="paint-order:normal"/>
     <path d="m81.2 81.7 1.43 0.135v19.8l-1.43-0.135z" fill="#beccdc" opacity=".999"/>
     <path d="m78.8 82 1.43 0.135v6.53l-1.43-0.135z" fill="#a9ff61" opacity=".999" style="paint-order:normal"/>
     <path d="m77.8 91.6 1.43 0.135v6.53l-1.43-0.135z" fill="#a9ff61" opacity=".999" style="paint-order:normal"/>
     <path d="m78.3 81.5 1.43 0.135v19.8l-1.43-0.135z" fill="#beccdc" opacity=".999"/>
    </g>
   </g>
  </g>
  <g transform="translate(-44.1 45.9)" fill="#ecefec" opacity=".999">
   <g fill="#4b525c" opacity=".999">
    <g transform="translate(34.5 -27.5)" fill-rule="evenodd">
     <path d="m74.5 73.5 18.6 1.76v23.8l-18.6-1.76z" fill="#e9e9ff" opacity=".999"/>
     <path d="m69.6 78.8v23.8l4.95-5.27v-23.8z" fill="#353564" opacity=".999"/>
     <path d="m69.6 103 18.6 1.76 4.95-5.27-18.6-1.76z" fill="#afafde" opacity=".999"/>
     <path d="m69.6 78.8 18.6 1.76 4.95-5.27-18.6-1.76z" fill="#d4e1e9" opacity=".999"/>
     <path d="m88.1 80.6v23.8l4.95-5.27v-23.8z" fill="#818b95" opacity=".999"/>
     <path d="m69.6 78.8 18.6 1.76v23.8l-18.6-1.76z" fill="#99a6b9" opacity=".999"/>
     <path d="m70.6 79.9v11l5.34 0.504v-11z" fill="#4b525c" opacity=".999"/>
     <path d="m84.6 83.1 1.43 0.135v6.53l-1.43-0.135z" fill="#a9ff61" opacity=".999" style="paint-order:normal"/>
     <path d="m83.5 93.7 1.43 0.135v6.53l-1.43-0.135z" fill="#a9ff61" opacity=".999" style="paint-order:normal"/>
     <path d="m84 82 1.43 0.135v19.8l-1.43-0.135z" fill="#beccdc" opacity=".999"/>
     <path d="m80.7 88.1 1.43 0.135v6.53l-1.43-0.135z" fill="#a9ff61" opacity=".999" style="paint-order:normal"/>
     <path d="m81.7 84.9 1.43 0.135v6.53l-1.43-0.135z" fill="#a9ff61" opacity=".999" style="paint-order:normal"/>
     <path d="m81.2 81.7 1.43 0.135v19.8l-1.43-0.135z" fill="#beccdc" opacity=".999"/>
     <path d="m78.8 82 1.43 0.135v6.53l-1.43-0.135z" fill="#a9ff61" opacity=".999" style="paint-order:normal"/>
     <path d="m77.8 91.6 1.43 0.135v6.53l-1.43-0.135z" fill="#a9ff61" opacity=".999" style="paint-order:normal"/>
     <path d="m78.3 81.5 1.43 0.135v19.8l-1.43-0.135z" fill="#beccdc" opacity=".999"/>
    </g>
   </g>
  </g>
  <g transform="matrix(1.38 0 0 1.38 46.4 33.2)" fill-rule="evenodd">
   <g fill="#d4e1e9" opacity=".999" stroke-dasharray="13.8331, 13.8331" stroke-width="3.46">
    <path d="m64.1 41.3 4.68 0.481v15.2l-4.68-0.481z" fill="#e9e9ff"/>
    <path d="m59.1 46.6v15.2l4.96-5.26v-15.2z" fill="#353564"/>
    <path d="m59.1 61.8 4.68 0.481 4.96-5.26-4.68-0.481z" fill="#afafde"/>
    <g>
     <path d="m59.1 46.6 4.68 0.481 4.96-5.26-4.68-0.481z" fill="#d4e1e9"/>
     <path d="m63.8 47v15.2l4.96-5.26v-15.2z" fill="#dc431d"/>
     <path d="m59.1 46.6 4.68 0.481v15.2l-4.68-0.481z" fill="#99a6b9"/>
    </g>
   </g>
   <path d="m59.9 47.9 0.921 0.0871v12.7l-0.921-0.0871z" fill="#beccdc" opacity=".999"/>
   <path d="m61.8 48 0.921 0.0871v12.7l-0.921-0.0871z" fill="#beccdc" opacity=".999"/>
  </g>
  <path d="m145 109c-4-2.08-1.29-3.95-1.62-4.84 0.933 0.567 0.966 1.45 0.966 1.45 1.19-1.59 0.43-2.29 1.96-3.18-0.175 2.37 0.88 1.47 1.95 3.61 0 0 0.346-0.931 0.396-1.33 1.76 2.67 0.22 3.66-1.54 4.42 0.126-1.14-0.791-0.883-0.843-1.88-1.01 0.412-1.68 0.971-1.27 1.75z" fill="#dc431d" stroke="#ffbe50" stroke-width=".529"/>
 </g>
 <g>
  <g transform="matrix(.35 0 0 .35 156 18.9)">
   <rect x="14.5" y="2" width="19" height="44" rx="3.5" ry="3.5" fill="#138cff" stop-color="#000000" style="font-variation-settings:normal;paint-order:stroke fill markers"/>
   <rect x="14.5" y="4.88" width="19" height="38.2" rx="3.5" ry="3.04" fill="#0070cc" stop-color="#000000" style="font-variation-settings:normal;paint-order:stroke fill markers"/>
   <rect x="14.5" y="4.88" width="19" height="38.2" rx="3.5" ry="3.04" clip-path="url(#clipPath1410-2-0)" fill="#005193" stop-color="#000000" style="paint-order:stroke fill markers"/>
   <path d="m39.7 28.2a16.2 16.2 0 0 1-1.62 3.92" fill="none" stop-color="#000000" stroke="#0070cc" stroke-width="2.88" style="font-variation-settings:normal;paint-order:stroke fill markers"/>
   <path d="m38.1 15.9a16.2 16.2 0 0 1 1.55 3.65" fill="none" stop-color="#000000" stroke="#0070cc" stroke-width="2.88" style="font-variation-settings:normal;paint-order:stroke fill markers"/>
   <circle cx="24" cy="24" r="16.2" fill="#31a2ff" stop-color="#000000" style="font-variation-settings:normal;paint-order:stroke fill markers"/>
   <circle cx="24" cy="24" r="13.4" fill="#fff" stop-color="#000000" style="paint-order:stroke fill markers"/>
   <g fill="none" stroke="#ffb700" stroke-width="2.88">
    <path d="m30.4 17.6a9.05 9.05 0 0 1 2.65 6.4 9.05 9.05 0 0 1-2.65 6.4" stop-color="#000000" style="font-variation-settings:normal;paint-order:stroke fill markers"/>
    <path d="m17.6 30.4a9.05 9.05 0 0 1 0-12.8" stop-color="#000000" style="font-variation-settings:normal;paint-order:stroke fill markers"/>
   </g>
   <g transform="translate(0 -.302)" fill="#ffb700">
    <rect x="22.6" y="18.2" width="2.88" height="7.81" rx="1.44" ry="1.44" stop-color="#000000" style="font-variation-settings:normal;paint-order:stroke fill markers"/>
    <circle cx="24" cy="29" r="1.44" stop-color="#000000" style="font-variation-settings:normal;paint-order:stroke fill markers"/>
   </g>
  </g>
  <g transform="matrix(.35 0 0 .35 164 4.49)">
   <rect x="14.5" y="2" width="19" height="44" rx="3.5" ry="3.5" fill="#138cff" stop-color="#000000" style="font-variation-settings:normal;paint-order:stroke fill markers"/>
   <rect x="14.5" y="4.88" width="19" height="38.2" rx="3.5" ry="3.04" fill="#0070cc" stop-color="#000000" style="font-variation-settings:normal;paint-order:stroke fill markers"/>
   <rect x="14.5" y="4.88" width="19" height="38.2" rx="3.5" ry="3.04" clip-path="url(#clipPath1410-2-0-8)" fill="#005193" stop-color="#000000" style="paint-order:stroke fill markers"/>
   <path d="m39.7 28.2a16.2 16.2 0 0 1-1.62 3.92" fill="none" stop-color="#000000" stroke="#0070cc" stroke-width="2.88" style="font-variation-settings:normal;paint-order:stroke fill markers"/>
   <path d="m38.1 15.9a16.2 16.2 0 0 1 1.55 3.65" fill="none" stop-color="#000000" stroke="#0070cc" stroke-width="2.88" style="font-variation-settings:normal;paint-order:stroke fill markers"/>
   <circle cx="24" cy="24" r="16.2" fill="#31a2ff" stop-color="#000000" style="font-variation-settings:normal;paint-order:stroke fill markers"/>
   <circle cx="24" cy="24" r="13.4" fill="#fff" stop-color="#000000" style="paint-order:stroke fill markers"/>
   <g fill="none" stroke="#ffb700" stroke-width="2.88">
    <path d="m30.4 17.6a9.05 9.05 0 0 1 2.65 6.4 9.05 9.05 0 0 1-2.65 6.4" stop-color="#000000" style="font-variation-settings:normal;paint-order:stroke fill markers"/>
    <path d="m17.6 30.4a9.05 9.05 0 0 1 0-12.8" stop-color="#000000" style="font-variation-settings:normal;paint-order:stroke fill markers"/>
   </g>
   <g transform="translate(0 -.302)" fill="#ffb700">
    <rect x="22.6" y="18.2" width="2.88" height="7.81" rx="1.44" ry="1.44" stop-color="#000000" style="font-variation-settings:normal;paint-order:stroke fill markers"/>
    <circle cx="24" cy="29" r="1.44" stop-color="#000000" style="font-variation-settings:normal;paint-order:stroke fill markers"/>
   </g>
  </g>
  <g transform="matrix(.35 0 0 .35 172 20.3)">
   <rect x="14.5" y="2" width="19" height="44" rx="3.5" ry="3.5" fill="#138cff" stop-color="#000000" style="font-variation-settings:normal;paint-order:stroke fill markers"/>
   <rect x="14.5" y="4.88" width="19" height="38.2" rx="3.5" ry="3.04" fill="#0070cc" stop-color="#000000" style="font-variation-settings:normal;paint-order:stroke fill markers"/>
   <rect x="14.5" y="4.88" width="19" height="38.2" rx="3.5" ry="3.04" clip-path="url(#clipPath1410-2-0-5)" fill="#005193" stop-color="#000000" style="paint-order:stroke fill markers"/>
   <path d="m39.7 28.2a16.2 16.2 0 0 1-1.62 3.92" fill="none" stop-color="#000000" stroke="#0070cc" stroke-width="2.88" style="font-variation-settings:normal;paint-order:stroke fill markers"/>
   <path d="m38.1 15.9a16.2 16.2 0 0 1 1.55 3.65" fill="none" stop-color="#000000" stroke="#0070cc" stroke-width="2.88" style="font-variation-settings:normal;paint-order:stroke fill markers"/>
   <circle cx="24" cy="24" r="16.2" fill="#31a2ff" stop-color="#000000" style="font-variation-settings:normal;paint-order:stroke fill markers"/>
   <circle cx="24" cy="24" r="13.4" fill="#fff" stop-color="#000000" style="paint-order:stroke fill markers"/>
   <g fill="none" stroke="#ffb700" stroke-width="2.88">
    <path d="m30.4 17.6a9.05 9.05 0 0 1 2.65 6.4 9.05 9.05 0 0 1-2.65 6.4" stop-color="#000000" style="font-variation-settings:normal;paint-order:stroke fill markers"/>
    <path d="m17.6 30.4a9.05 9.05 0 0 1 0-12.8" stop-color="#000000" style="font-variation-settings:normal;paint-order:stroke fill markers"/>
   </g>
   <g transform="translate(0 -.302)" fill="#ffb700">
    <rect x="22.6" y="18.2" width="2.88" height="7.81" rx="1.44" ry="1.44" stop-color="#000000" style="font-variation-settings:normal;paint-order:stroke fill markers"/>
    <circle cx="24" cy="29" r="1.44" stop-color="#000000" style="font-variation-settings:normal;paint-order:stroke fill markers"/>
   </g>
  </g>
 </g>
</svg>
