<?xml version="1.0" standalone="no"?>
<!DOCTYPE svg PUBLIC "-//W3C//DTD SVG 20010904//EN"
 "http://www.w3.org/TR/2001/REC-SVG-20010904/DTD/svg10.dtd">
<svg version="1.0" xmlns="http://www.w3.org/2000/svg"
 width="663.000000pt" height="663.000000pt" viewBox="0 0 663.000000 663.000000"
 preserveAspectRatio="xMidYMid meet">
<metadata>
Created by potrace 1.11, written by Peter Selinger 2001-2013
</metadata>
<g transform="translate(0.000000,663.000000) scale(0.100000,-0.100000)"
fill="#000000" stroke="none">
<path d="M5519 6619 c-20 -5 -49 -11 -65 -14 -16 -4 -39 -7 -51 -8 -13 -1 -23
-3 -23 -6 0 -4 -10 -7 -22 -8 -31 -3 -83 -11 -83 -13 0 -1 -11 -3 -25 -5 -14
-2 -38 -6 -55 -10 -16 -3 -48 -8 -70 -11 -21 -3 -43 -8 -48 -11 -4 -3 -23 -7
-40 -10 -18 -2 -43 -7 -57 -9 -14 -3 -34 -7 -45 -8 -11 -2 -20 -4 -20 -5 0 -2
-18 -5 -40 -7 -22 -3 -56 -9 -75 -14 -19 -5 -51 -12 -70 -15 -19 -3 -46 -8
-60 -10 -76 -16 -97 -19 -160 -30 -19 -3 -51 -10 -70 -15 -19 -5 -50 -10 -67
-12 -18 -1 -33 -6 -33 -11 0 -4 -4 -6 -8 -3 -4 3 -28 0 -53 -6 -24 -5 -57 -11
-74 -13 -16 -1 -30 -4 -30 -5 0 -2 -22 -7 -75 -15 -24 -4 -47 -8 -50 -10 -4
-2 -29 -7 -56 -11 -27 -3 -53 -8 -57 -11 -4 -2 -24 -7 -45 -9 -20 -2 -50 -7
-67 -11 -16 -3 -37 -7 -45 -9 -8 -1 -26 -5 -40 -9 -14 -3 -38 -8 -55 -10 -43
-7 -70 -12 -70 -15 0 -1 -11 -3 -25 -4 -14 -2 -39 -6 -55 -10 -17 -4 -46 -10
-65 -12 -19 -3 -42 -7 -50 -9 -8 -2 -31 -7 -50 -10 -19 -3 -55 -11 -80 -16
-25 -6 -58 -13 -75 -15 -16 -2 -41 -6 -55 -9 -72 -17 -236 -19 -1405 -19
l-1271 -1 1 -230 c1 -230 -2 -278 -14 -271 -3 2 -26 0 -51 -5 -25 -5 -58 -11
-75 -14 -30 -5 -54 -10 -98 -20 -12 -3 -35 -8 -52 -10 -26 -3 -109 -19 -155
-30 -8 -2 -20 -4 -26 -4 -8 -1 -8 -18 2 -65 22 -105 25 -120 30 -156 2 -19 7
-43 10 -52 6 -20 15 -64 19 -93 1 -11 3 -20 4 -20 2 0 6 -18 15 -75 3 -24 25
-139 31 -170 2 -8 4 -15 5 -15 1 0 3 -11 4 -25 2 -14 7 -43 11 -65 5 -22 8
-48 9 -57 0 -10 3 -18 6 -18 3 0 6 -8 7 -17 1 -23 10 -82 17 -113 3 -14 8 -36
10 -50 3 -14 10 -52 17 -85 6 -33 13 -69 15 -80 1 -11 3 -20 4 -20 1 0 3 -9 5
-20 2 -11 6 -31 9 -45 3 -14 8 -44 11 -67 3 -23 9 -52 14 -65 4 -13 7 -31 6
-40 -2 -10 0 -18 4 -18 4 0 7 -8 8 -17 1 -21 8 -65 23 -143 6 -30 12 -66 14
-80 2 -14 5 -25 6 -25 1 0 3 -9 5 -20 14 -82 22 -123 30 -160 4 -16 8 -39 10
-50 1 -11 3 -20 5 -20 1 0 3 -11 5 -25 5 -39 13 -83 20 -110 4 -14 7 -32 7
-40 0 -8 2 -22 5 -30 3 -8 7 -24 8 -35 4 -28 24 -135 31 -165 3 -14 7 -34 8
-45 2 -11 4 -20 5 -20 10 0 13 -242 14 -1360 l2 -1290 242 0 c133 0 244 -3
247 -6 3 -3 8 -23 12 -45 3 -21 7 -41 9 -44 2 -3 6 -26 10 -50 8 -51 13 -75
15 -75 1 0 3 -11 6 -25 2 -14 6 -38 9 -55 3 -16 6 -40 7 -52 1 -13 4 -23 8
-23 3 0 6 -10 6 -22 3 -35 13 -90 18 -95 3 -3 11 -1 18 3 7 5 22 9 33 11 41 4
130 20 130 23 0 2 20 5 85 16 25 4 52 9 60 11 16 4 53 11 85 17 11 2 20 4 20
6 0 1 11 3 25 4 14 2 39 6 55 9 17 4 46 9 65 13 44 7 65 12 65 14 0 1 9 3 20
4 63 9 112 18 127 22 32 9 124 25 156 27 6 0 12 4 12 8 0 4 10 7 23 6 23 0 71
8 167 29 28 6 46 9 105 18 22 4 47 9 55 12 8 3 31 8 50 10 37 5 58 9 100 19
14 3 39 8 55 10 17 3 40 7 53 10 45 10 58 13 102 21 25 4 47 8 50 9 11 2 100
16 105 16 2 0 19 5 37 10 18 6 49 12 68 15 19 2 43 7 53 10 10 3 34 8 54 10
20 3 54 9 77 14 49 11 103 21 131 25 11 1 20 3 20 5 0 1 9 3 20 4 11 1 38 6
60 11 22 5 48 9 58 10 9 2 18 3 20 5 1 1 11 3 22 4 11 2 36 7 55 11 19 5 604
9 1300 9 l1265 1 1 230 c1 127 2 236 3 243 0 6 11 12 24 12 13 0 27 3 31 7 4
4 19 8 34 9 15 1 27 2 27 3 0 2 11 4 25 7 14 2 50 9 80 15 30 6 66 12 80 15
14 2 34 6 46 9 12 3 39 7 60 11 21 3 46 8 54 9 8 2 19 4 23 4 5 1 6 5 2 10 -3
6 -8 28 -11 51 -7 48 -12 75 -14 75 -1 0 -3 9 -5 20 -2 11 -7 36 -11 55 -3 19
-8 44 -9 55 -3 20 -8 44 -20 95 -3 14 -8 43 -10 64 -3 21 -8 43 -11 47 -2 5
-7 25 -9 46 -5 41 -7 50 -31 163 -3 14 -7 34 -8 45 -2 11 -7 36 -11 55 -4 19
-8 44 -10 55 -2 11 -6 32 -9 48 -9 40 -16 77 -22 117 -3 19 -7 43 -10 52 -5
17 -11 45 -19 93 -9 47 -15 81 -20 100 -9 42 -16 81 -16 95 0 8 -3 22 -6 30
-3 8 -7 22 -8 30 -1 8 -7 44 -13 80 -7 36 -14 76 -16 90 -3 14 -5 25 -6 25 -2
0 -10 36 -15 70 -2 17 -7 44 -11 60 -3 17 -7 39 -9 50 -1 11 -3 20 -4 20 -1 0
-4 11 -7 25 -2 14 -6 39 -9 55 -3 17 -7 39 -9 50 -2 11 -4 20 -5 20 -1 0 -4
14 -6 30 -2 17 -7 44 -10 60 -3 17 -7 39 -9 50 -2 11 -4 20 -5 20 -1 0 -4 14
-6 30 -2 17 -6 39 -9 51 -3 12 -8 39 -12 60 -8 48 -12 69 -14 69 -2 0 -9 42
-13 75 -1 14 -5 30 -8 35 -4 6 -5 18 -4 28 2 9 0 17 -3 17 -14 0 -15 135 -16
1360 l-1 1245 -239 0 -240 0 -8 30 c-9 29 -14 53 -23 105 -2 14 -6 37 -9 53
-13 60 -17 83 -22 112 -3 17 -9 48 -14 69 -5 22 -7 44 -4 48 3 4 0 8 -6 8 -6
0 -9 4 -6 9 4 5 3 18 -1 28 -7 16 -14 18 -44 12z"/>
</g>
</svg>
